HIERARCHY
ROOT hip
{
  OFFSET 0 0 0
  CHANNELS 6 Xposition Yposition Zposition Zrotation Yrotation Xrotation
  JOINT abdomen
  {
    OFFSET 0 20.6881 -0.73152
    CHANNELS 3 Zrotation Xrotation Yrotation
    JOINT chest
    {
      OFFSET 0 11.7043 -0.48768
      CHANNELS 3 Zrotation Xrotation Yrotation
      JOINT neck
      {
        OFFSET 0 22.1894 -2.19456
        CHANNELS 3 Zrotation Xrotation Yrotation
        JOINT head
        {
          OFFSET -0.24384 7.07133 1.2192
          CHANNELS 3 Zrotation Xrotation Yrotation
          JOINT leftEye
          {
            OFFSET 4.14528 8.04674 8.04672
            CHANNELS 3 Zrotation Xrotation Yrotation
            End Site
            {
              OFFSET 1 0 0
            }
          }
          JOINT rightEye
          {
            OFFSET -3.6576 8.04674 8.04672
            CHANNELS 3 Zrotation Xrotation Yrotation
            End Site
            {
              OFFSET 1 0 0
            }
          }
        }
      }
      JOINT rCollar
      {
        OFFSET -2.68224 19.2634 -4.8768
        CHANNELS 3 Zrotation Xrotation Yrotation
        JOINT rShldr
        {
          OFFSET -8.77824 -1.95073 1.46304
          CHANNELS 3 Zrotation Xrotation Yrotation
          JOINT rForeArm
          {
            OFFSET -28.1742 -1.7115 0.48768
            CHANNELS 3 Zrotation Xrotation Yrotation
            JOINT rHand
            {
              OFFSET -22.5879 0.773209 7.07136
              CHANNELS 3 Zrotation Xrotation Yrotation
              JOINT rThumb1
              {
                OFFSET -1.2192 -0.487915 3.41376
                CHANNELS 3 Zrotation Xrotation Yrotation
                JOINT rThumb2
                {
                  OFFSET -3.37035 -0.52449 3.41376
                  CHANNELS 3 Zrotation Xrotation Yrotation
                  End Site
                  {
                    OFFSET -1.78271 -1.18214 1.43049
                  }
                }
              }
              JOINT rIndex1
              {
                OFFSET -7.75947 0.938293 5.60832
                CHANNELS 3 Zrotation Xrotation Yrotation
                JOINT rIndex2
                {
                  OFFSET -2.54057 -0.884171 1.56538
                  CHANNELS 3 Zrotation Xrotation Yrotation
                  End Site
                  {
                    OFFSET -1.62519 -0.234802 1.16502
                  }
                }
              }
              JOINT rMid1
              {
                OFFSET -8.24714 1.18213 3.41376
                CHANNELS 3 Zrotation Xrotation Yrotation
                JOINT rMid2
                {
                  OFFSET -3.10165 -0.590103 1.0647
                  CHANNELS 3 Zrotation Xrotation Yrotation
                  End Site
                  {
                    OFFSET -2.48547 -0.328903 0.83742
                  }
                }
              }
              JOINT rRing1
              {
                OFFSET -8.82822 0.546677 1.51678
                CHANNELS 3 Zrotation Xrotation Yrotation
                JOINT rRing2
                {
                  OFFSET -2.60934 -0.819778 -0.0198488
                  CHANNELS 3 Zrotation Xrotation Yrotation
                  End Site
                  {
                    OFFSET -2.33842 -0.294052 0.168128
                  }
                }
              }
              JOINT rPinky1
              {
                OFFSET -8.27202 -0.0477905 -0.4584
                CHANNELS 3 Zrotation Xrotation Yrotation
                JOINT rPinky2
                {
                  OFFSET -1.82734 -0.647385 -0.700984
                  CHANNELS 3 Zrotation Xrotation Yrotation
                  End Site
                  {
                    OFFSET -1.69225 -0.51767 -0.607171
                  }
                }
              }
            }
          }
        }
      }
      JOINT lCollar
      {
        OFFSET 2.68224 19.2634 -4.8768
        CHANNELS 3 Zrotation Xrotation Yrotation
        JOINT lShldr
        {
          OFFSET 8.77824 -1.95073 1.46304
          CHANNELS 3 Zrotation Xrotation Yrotation
          JOINT lForeArm
          {
            OFFSET 28.1742 -1.7115 0.48768
            CHANNELS 3 Zrotation Xrotation Yrotation
            JOINT lHand
            {
              OFFSET 22.5879 0.773209 7.07136
              CHANNELS 3 Zrotation Xrotation Yrotation
              JOINT lThumb1
              {
                OFFSET 1.2192 -0.487915 3.41376
                CHANNELS 3 Zrotation Xrotation Yrotation
                JOINT lThumb2
                {
                  OFFSET 3.37035 -0.52449 3.41376
                  CHANNELS 3 Zrotation Xrotation Yrotation
                  End Site
                  {
                    OFFSET 1.78271 -1.18214 1.43049
                  }
                }
              }
              JOINT lIndex1
              {
                OFFSET 7.75947 0.938293 5.60832
                CHANNELS 3 Zrotation Xrotation Yrotation
                JOINT lIndex2
                {
                  OFFSET 2.54057 -0.884171 1.56538
                  CHANNELS 3 Zrotation Xrotation Yrotation
                  End Site
                  {
                    OFFSET 1.62519 -0.234802 1.16502
                  }
                }
              }
              JOINT lMid1
              {
                OFFSET 8.24714 1.18213 3.41376
                CHANNELS 3 Zrotation Xrotation Yrotation
                JOINT lMid2
                {
                  OFFSET 3.10165 -0.590103 1.0647
                  CHANNELS 3 Zrotation Xrotation Yrotation
                  End Site
                  {
                    OFFSET 2.48547 -0.328903 0.83742
                  }
                }
              }
              JOINT lRing1
              {
                OFFSET 8.82822 0.546677 1.51678
                CHANNELS 3 Zrotation Xrotation Yrotation
                JOINT lRing2
                {
                  OFFSET 2.60934 -0.819778 -0.0198488
                  CHANNELS 3 Zrotation Xrotation Yrotation
                  End Site
                  {
                    OFFSET 2.33842 -0.294052 0.168128
                  }
                }
              }
              JOINT lPinky1
              {
                OFFSET 8.27202 -0.0477905 -0.4584
                CHANNELS 3 Zrotation Xrotation Yrotation
                JOINT lPinky2
                {
                  OFFSET 1.82734 -0.647385 -0.700984
                  CHANNELS 3 Zrotation Xrotation Yrotation
                  End Site
                  {
                    OFFSET 1.69225 -0.51767 -0.607171
                  }
                }
              }
            }
          }
        }
      }
    }
  }
  JOINT rButtock
  {
    OFFSET -8.77824 4.35084 1.2192
    CHANNELS 3 Zrotation Xrotation Yrotation
    JOINT rThigh
    {
      OFFSET 0 -1.70687 -2.19456
      CHANNELS 3 Zrotation Xrotation Yrotation
      JOINT rShin
      {
        OFFSET 0 -36.8199 0.73152
        CHANNELS 3 Zrotation Xrotation Yrotation
        JOINT rFoot
        {
          OFFSET 0.73152 -45.1104 -5.12064
          CHANNELS 3 Zrotation Xrotation Yrotation
          End Site
          {
            OFFSET -1.1221 -3.69964 12.103
          }
        }
      }
    }
  }
  JOINT lButtock
  {
    OFFSET 8.77824 4.35084 1.2192
    CHANNELS 3 Zrotation Xrotation Yrotation
    JOINT lThigh
    {
      OFFSET 0 -1.70687 -2.19456
      CHANNELS 3 Zrotation Xrotation Yrotation
      JOINT lShin
      {
        OFFSET 0 -36.8199 0.73152
        CHANNELS 3 Zrotation Xrotation Yrotation
        JOINT lFoot
        {
          OFFSET -0.73152 -45.1104 -5.12064
          CHANNELS 3 Zrotation Xrotation Yrotation
          End Site
          {
            OFFSET 1.1221 -3.69964 12.103
          }
        }
      }
    }
  }
}
MOTION
Frames:	7
Frame Time:	0.00833333
-33.3635 56.8971 -8.34095 127.018 72.0807 150.336 9.83151 53.6526 1.58594 -6.25051 -10.0284 1.96145 -13.8709 -12.0203 -12.5791 10.2228 -3.22028 -17.9592 -0.0 0.0 0.0 -0.0 0.0 0.0 -2.61158e-13 -1.24647e-12 3.41552e-13 60.6534 -27.4313 75.8618 -13.6305 -6.67054 24.7979 -1.30672 -30.6776 -4.77946 -3.25039e-09 -1.21487e-09 -1.78249e-09 -5.58336e-09 -2.07711e-09 -3.14421e-09 -3.25038e-09 -1.21487e-09 -1.7825e-09 7.73091 5.47488 0.417314 -3.25039e-09 -1.21487e-09 -1.78249e-09 2.90554 0.965183 0.102902 -3.25038e-09 -1.21487e-09 -1.78249e-09 10.2786 0.731801 0.0259123 -3.2504e-09 -1.21486e-09 -1.78248e-09 2.22167 -0.733487 -0.20892 -2.61174e-13 -1.24643e-12 3.41238e-13 -62.4303 48.8769 -19.6141 20.2372 -13.3129 -39.2596 1.28574 -30.3976 4.72936 1.57469e-09 1.24197e-09 3.20447e-10 2.69144e-09 2.16411e-09 5.92843e-10 1.57469e-09 1.24197e-09 3.20454e-10 -7.73091 5.47488 -0.417314 1.57469e-09 1.24197e-09 3.20453e-10 -2.90554 0.965183 -0.102902 1.57469e-09 1.24197e-09 3.20446e-10 -10.2786 0.731801 -0.0259123 1.5747e-09 1.24197e-09 3.2044e-10 -2.22167 -0.733487 0.20892 -2.03217e-16 0.0 -3.88251e-19 -98.5754 -47.0469 -84.2613 -168.062 85.043 169.626 1.25281 -19.6684 1.4818 2.03217e-16 0.0 3.88251e-19 -41.3773 -86.7767 -30.7557 152.115 87.8406 -153.341 3.28675 -22.0191 7.29485
-33.324 56.9827 -8.33471 126.172 72.2036 149.512 9.52967 53.5509 1.72293 -6.24849 -10.0261 1.94889 -13.5909 -12.0908 -12.4334 10.1201 -3.15553 -17.8067 -0.0 0.0 0.0 -0.0 0.0 0.0 -1.73478e-13 -9.88421e-13 -1.15482e-14 59.81 -26.6632 74.433 -14.3866 -7.28016 26.3305 -1.48107 -32.4163 -5.11613 -1.17542e-09 -7.31947e-10 -1.88539e-09 -1.99306e-09 -1.25431e-09 -3.26928e-09 -1.17542e-09 -7.31945e-10 -1.88541e-09 7.73091 5.47488 0.417314 -1.17542e-09 -7.31947e-10 -1.88539e-09 2.90554 0.965183 0.102902 -1.17541e-09 -7.31946e-10 -1.88539e-09 10.2786 0.731801 0.0259123 -1.17543e-09 -7.31945e-10 -1.88538e-09 2.22167 -0.733487 -0.20892 -1.73537e-13 -9.8838e-13 -1.18805e-14 -62.3891 48.7437 -19.5225 20.2324 -13.3065 -39.2484 1.28825 -30.4232 4.73425 1.8631e-09 1.01117e-09 1.94324e-10 3.19712e-09 1.77265e-09 3.82984e-10 1.86309e-09 1.01117e-09 1.94333e-10 -7.73091 5.47488 -0.417314 1.8631e-09 1.01117e-09 1.94331e-10 -2.90554 0.965183 -0.102902 1.86309e-09 1.01117e-09 1.94323e-10 -10.2786 0.731801 -0.0259123 1.86311e-09 1.01117e-09 1.94317e-10 -2.22167 -0.733487 0.20892 -2.03217e-16 0.0 -3.88251e-19 -98.5552 -47.3285 -84.1797 -167.687 85.2052 169.25 1.13011 -19.5968 1.22909 2.03217e-16 0.0 3.88251e-19 -39.1452 -86.6994 -28.456 151.055 87.9169 -152.286 3.40586 -22.147 7.49387
-33.2739 57.0904 -8.30421 125.659 72.3366 149.029 9.26753 53.4939 1.77365 -6.21425 -10.0417 1.92503 -13.3193 -12.1539 -12.2858 10.0434 -3.09762 -17.6474 -0.0 0.0 0.0 -0.0 0.0 0.0 -7.30878e-14 -6.65744e-13 -3.49245e-13 58.606 -25.586 72.7106 -15.3041 -8.05487 28.2349 -1.7158 -34.4805 -5.53687 9.26141e-10 -2.06066e-10 -1.88581e-09 1.6402e-09 -3.57841e-10 -3.21896e-09 9.26145e-10 -2.06062e-10 -1.88584e-09 7.73091 5.47488 0.417314 9.26142e-10 -2.06066e-10 -1.88581e-09 2.90554 0.965183 0.102902 9.26147e-10 -2.06065e-10 -1.88581e-09 10.2786 0.731801 0.0259123 9.26133e-10 -2.06064e-10 -1.8858e-09 2.22167 -0.733487 -0.20892 -7.32026e-14 -6.65701e-13 -3.49591e-13 -62.3696 48.6234 -19.4023 20.2118 -13.2801 -39.1977 1.28307 -30.3704 4.72419 1.98025e-09 7.34403e-10 8.63246e-11 3.40766e-09 1.29936e-09 2.00199e-10 1.98025e-09 7.34406e-10 8.63359e-11 -7.73091 5.47488 -0.417314 1.98025e-09 7.34404e-10 8.63315e-11 -2.90554 0.965183 -0.102902 1.98024e-09 7.34404e-10 8.63244e-11 -10.2786 0.731801 -0.0259123 1.98026e-09 7.34406e-10 8.6318e-11 -2.22167 -0.733487 0.20892 -2.03217e-16 0.0 -3.88251e-19 -98.3562 -47.6113 -83.9483 -167.173 85.4114 168.735 1.00652 -19.5396 0.973211 2.03217e-16 0.0 3.88251e-19 -36.4168 -86.5339 -25.7035 149.096 88.0419 -150.33 3.50292 -22.2956 7.64572
-33.1849 57.2382 -8.25074 125.431 72.4827 148.694 9.12274 53.5207 1.69642 -6.12691 -10.0826 1.89303 -13.129 -12.2031 -12.146 10.0067 -3.06499 -17.4623 -0.0 0.0 0.0 -0.0 0.0 0.0 -3.49382e-14 -4.93801e-13 -4.54621e-13 57.2968 -24.3968 70.9882 -16.2077 -8.8816 30.1123 -1.95734 -36.4028 -5.94802 1.90685e-09 1.24855e-10 -1.28068e-09 3.3201e-09 2.05333e-10 -2.1546e-09 1.90685e-09 1.24859e-10 -1.28071e-09 7.73091 5.47488 0.417314 1.90685e-09 1.24855e-10 -1.28068e-09 2.90554 0.965183 0.102902 1.90685e-09 1.24856e-10 -1.28068e-09 10.2786 0.731801 0.0259123 1.90684e-09 1.24856e-10 -1.28066e-09 2.22167 -0.733487 -0.20892 -3.50863e-14 -4.93761e-13 -4.54968e-13 -62.4552 48.4542 -19.2374 20.1713 -13.2288 -39.0975 1.27215 -30.2582 4.70283 1.87623e-09 3.09945e-10 -1.45294e-10 3.23866e-09 5.66587e-10 -2.0283e-10 1.87622e-09 3.09949e-10 -1.45281e-10 -7.73091 5.47488 -0.417314 1.87623e-09 3.09945e-10 -1.45288e-10 -2.90554 0.965183 -0.102902 1.87622e-09 3.09946e-10 -1.45294e-10 -10.2786 0.731801 -0.0259123 1.87624e-09 3.09947e-10 -1.453e-10 -2.22167 -0.733487 0.20892 -2.03217e-16 0.0 -3.88251e-19 -97.8602 -47.9109 -83.4934 -166.428 85.6799 167.986 0.900773 -19.5464 0.753998 2.03217e-16 0.0 3.88251e-19 -32.5197 -86.2508 -21.8576 145.425 88.2341 -146.656 3.5515 -22.4281 7.70803
-33.0568 57.4346 -8.17749 125.686 72.6464 148.695 9.15607 53.6872 1.41949 -5.95713 -10.1639 1.84826 -13.053 -12.2258 -12.0163 10.037 -3.08881 -17.2395 -0.0 0.0 0.0 -0.0 0.0 0.0 -1.07461e-13 -5.91575e-13 -1.80007e-13 55.8175 -23.0421 69.2999 -17.0611 -9.72023 31.9266 -2.19848 -38.2098 -6.34911 1.10445e-09 1.50415e-10 4.22577e-10 1.88954e-09 2.44681e-10 7.54746e-10 1.10446e-09 1.5042e-10 4.22552e-10 7.73091 5.47488 0.417314 1.10445e-09 1.50415e-10 4.22578e-10 2.90554 0.965183 0.102902 1.10445e-09 1.50416e-10 4.22582e-10 10.2786 0.731801 0.0259123 1.10444e-09 1.50416e-10 4.22595e-10 2.22167 -0.733487 -0.20892 -1.0761e-13 -5.91546e-13 -1.80338e-13 -62.713 48.1862 -18.9864 20.1031 -13.1425 -38.9294 1.25368 -30.065 4.66632 1.46118e-09 -4.58786e-10 -6.64044e-10 2.53923e-09 -7.66874e-10 -1.11195e-09 1.46117e-09 -4.58782e-10 -6.6403e-10 -7.73091 5.47488 -0.417314 1.46118e-09 -4.58786e-10 -6.64039e-10 -2.90554 0.965183 -0.102902 1.46116e-09 -4.58785e-10 -6.64044e-10 -10.2786 0.731801 -0.0259123 1.46118e-09 -4.58784e-10 -6.6405e-10 -2.22167 -0.733487 0.20892 -2.03217e-16 0.0 -3.88251e-19 -96.9287 -48.2385 -82.6954 -165.328 86.021 166.881 0.816742 -19.6555 0.580081 2.03217e-16 0.0 3.88251e-19 -27.4617 -85.7857 -16.9611 138.315 88.5 -139.537 3.52342 -22.5468 7.62841
-32.9062 57.6873 -8.09281 125.953 72.8235 148.69 9.318 53.9563 0.981091 -5.72414 -10.2773 1.7908 -13.0482 -12.2291 -11.8916 10.1196 -3.15067 -16.9913 -0.0 0.0 0.0 -0.0 0.0 0.0 -2.412e-13 -8.23687e-13 3.28964e-13 54.1242 -21.4027 67.5781 -17.9281 -10.6106 33.8759 -2.47534 -40.0993 -6.79115 -7.5033e-10 1.31582e-11 2.83618e-09 -1.37854e-09 4.58163e-12 4.85936e-09 -7.50326e-10 1.31627e-11 2.83616e-09 7.73091 5.47488 0.417314 -7.50329e-10 1.31592e-11 2.83618e-09 2.90554 0.965183 0.102902 -7.50327e-10 1.31597e-11 2.83618e-09 10.2786 0.731801 0.0259123 -7.50336e-10 1.31585e-11 2.8362e-09 2.22167 -0.733487 -0.20892 -2.41338e-13 -8.23679e-13 3.28663e-13 -63.0801 47.8625 -18.673 20.0107 -13.0258 -38.7043 1.22786 -29.7897 4.61462 7.87233e-10 -1.46105e-09 -1.35242e-09 1.39717e-09 -2.50834e-09 -2.32195e-09 7.87229e-10 -1.46105e-09 -1.35241e-09 -7.73091 5.47488 -0.417314 7.87234e-10 -1.46105e-09 -1.35242e-09 -2.90554 0.965183 -0.102902 7.87222e-10 -1.46105e-09 -1.35242e-09 -10.2786 0.731801 -0.0259123 7.87241e-10 -1.46105e-09 -1.35243e-09 -2.22167 -0.733487 0.20892 -2.03217e-16 0.0 -3.88251e-19 -95.648 -48.5699 -81.6094 -163.759 86.4214 165.305 0.743769 -19.8324 0.430534 2.03217e-16 0.0 3.88251e-19 -22.5317 -85.1522 -12.2755 125.148 88.7864 -126.354 3.43861 -22.6675 7.44271
-32.7367 57.9845 -8.00557 126.119 73.0032 148.606 9.51753 54.2278 0.507033 -5.47985 -10.3948 1.73103 -13.073 -12.2358 -11.7707 10.206 -3.19447 -16.7354 -0.0 0.0 0.0 -0.0 0.0 0.0 -3.64277e-13 -1.02396e-12 8.49266e-13 52.448 -19.6286 65.8654 -18.8109 -11.5792 35.9099 -2.76405 -41.8645 -7.23067 -2.71546e-09 -1.45424e-10 5.14267e-09 -4.83535e-09 -2.69542e-10 8.77692e-09 -2.71545e-09 -1.4542e-10 5.14266e-09 7.73091 5.47488 0.417314 -2.71546e-09 -1.45422e-10 5.14267e-09 2.90554 0.965183 0.102902 -2.71545e-09 -1.45422e-10 5.14267e-09 10.2786 0.731801 0.0259123 -2.71546e-09 -1.45424e-10 5.14269e-09 2.22167 -0.733487 -0.20892 -3.64397e-13 -1.02397e-12 8.48996e-13 -63.4474 47.5618 -18.3773 19.9079 -12.8966 -38.4559 1.19949 -29.4811 4.55708 1.74597e-11 -2.3376e-09 -1.93066e-09 8.61493e-11 -4.03458e-09 -3.34359e-09 1.74575e-11 -2.33759e-09 -1.93064e-09 -7.73091 5.47488 -0.417314 1.74615e-11 -2.3376e-09 -1.93066e-09 -2.90554 0.965183 -0.102902 1.74506e-11 -2.3376e-09 -1.93066e-09 -10.2786 0.731801 -0.0259123 1.74671e-11 -2.3376e-09 -1.93066e-09 -2.22167 -0.733487 0.20892 -2.03217e-16 0.0 -3.88251e-19 -94.2432 -48.8718 -80.4311 -161.54 86.8633 163.079 0.678847 -20.0168 0.300862 2.03217e-16 0.0 3.88251e-19 -18.5456 -84.4447 -8.55526 103.065 88.9874 -104.253 3.34304 -22.7731 7.24087
